PathFileType	4	(X/Y/Z)	Patient4_TMGait_0pt6_02_right_22.trc.trc
DataRate	CameraRate	NumFrames	NumMarkers	Units	OrigDataRate	OrigDataStartFrame	OrigNumFrames
83.333333333333	83.333333333333	6	33	mm	83.333333333333	71	       141
Frame#	Time	Sacral			L.Shoulder			Chest			R.Shoulder			Neck			R.ASIS			L.ASIS			R.Thigh.Superior			R.Thigh.Lateral			R.Thigh.Inferior			R.Patella			L.Thigh.Superior			L.Thigh.Lateral			L.Thigh.Inferior			L.Patella			L.Shank.Superior			L.Shank.Lateral			L.Shank.Inferior			R.Shank.Superior			R.Shank.Lateral			R.Shank.Inferior			R.Heel			R.Midfoot.Superior			R.Midfoot.Lateral			R.Toe			L.Heel			L.Midfoot.Lateral			L.Midfoot.Superior			L.Toe			L.Elbow			L.Wrist			R.Elbow			R.Wrist			
		X1	Y1	Z1	X2	Y2	Z2	X3	Y3	Z3	X4	Y4	Z4	X5	Y5	Z5	X6	Y6	Z6	X7	Y7	Z7	X8	Y8	Z8	X9	Y9	Z9	X10	Y10	Z10	X11	Y11	Z11	X12	Y12	Z12	X13	Y13	Z13	X14	Y14	Z14	X15	Y15	Z15	X16	Y16	Z16	X17	Y17	Z17	X18	Y18	Z18	X19	Y19	Z19	X20	Y20	Z20	X21	Y21	Z21	X22	Y22	Z22	X23	Y23	Z23	X24	Y24	Z24	X25	Y25	Z25	X26	Y26	Z26	X27	Y27	Z27	X28	Y28	Z28	X29	Y29	Z29	X30	Y30	Z30	X31	Y31	Z31	X32	Y32	Z32	X33	Y33	Z33	

71	27.230000000000	830.669625719881	999.437274410176	483.356235997598	985.881142917519	1420.058308559271	286.473099724134	1104.457315389996	1353.432108419328	436.579240318460	1038.338960432704	1431.437577443343	614.940611187298	989.966389886948	1483.597096159390	438.719424797189	1058.829022077904	930.208827676454	589.873324863503	1034.654774653698	945.004228539599	315.343475834899	1049.285809362590	715.194777301508	563.113982876659	939.523813921607	625.435878177352	622.582614341084	996.848115288209	557.395329862185	542.432735854423	973.071658726150	472.373327442866	544.612419247654	1112.239737684266	767.002169328799	353.519758026983	1066.721309052050	636.196973052453	276.696611600842	1171.076756116129	581.841089705519	340.671403788985	1195.782826058373	512.872415276644	339.532156662492	1176.729151911351	438.370676128103	330.183463117613	1104.065158537988	310.531488526596	283.783221032009	1186.833727559735	209.426887317417	340.937012951893	930.742218418083	390.822541302228	550.511454977564	843.188091716785	299.694335345382	610.354563648325	867.640961107595	200.212525518006	545.596289579262	713.495878033737	45.781549870993	510.230879039418	884.170061094408	96.199823122887	552.957185095763	793.197670292100	37.602803286598	587.999961459426	1001.876131130626	39.492931328102	587.091419213161	1095.715649804084	39.097435030702	386.659415812679	1166.254447710735	39.207092617442	303.333102905299	1243.008869751305	109.363944055482	322.448950379962	1373.022763117649	70.129193729505	290.896516261763	863.716651992533	1082.936676641991	195.926263086148	816.357867724832	829.107975937793	207.200519754247	1190.613903646811	1126.319696999891	726.516316451497	1432.280517365435	1157.438705152101	653.840121826890	
72	27.242000000000	832.300510790895	998.092718171776	481.537360658875	985.877460189696	1418.697248864994	284.270259058390	1104.858038271454	1352.838748271621	434.380557163084	1038.460960386644	1430.672694501702	612.831064159267	990.059217673285	1482.502701694916	436.356882322538	1060.711747275112	928.991180420439	588.220646041215	1036.484793333390	944.054525417298	313.807317264852	1050.824379619342	713.818922381988	561.643936732111	940.604899071146	624.350550186686	621.050712343235	997.798259232140	555.879958148987	541.114267575682	973.213024911815	470.243851661388	543.133663996727	1114.341204333204	765.160639652147	351.915509441562	1066.621999284520	634.387391757223	276.655801853415	1171.180170284149	579.698557637063	340.132216117782	1194.388383913465	509.942956181039	339.866434882976	1174.830490435926	435.278222023078	330.592523725181	1100.619822878456	308.324170292656	284.183499584915	1181.296468434267	206.212672439335	342.094063582357	929.375607598375	389.291043196156	549.289106941817	840.445451765625	299.850967521945	609.775032342700	862.823109573985	199.857064777862	545.205401532800	706.404882518004	47.071805728972	510.566032108267	877.362695391281	96.366081948656	553.030568484460	786.137665577471	38.156173328826	588.139033325736	994.751315706001	39.172133227053	587.171238824933	1086.536162145339	38.635966163865	387.941865114475	1156.852343972281	37.733114956218	304.302182071823	1235.639881347539	105.376700237626	324.160988323654	1364.821801914652	62.663452740180	291.765693986064	864.976011391820	1081.034435451267	194.015826288516	817.557351389802	827.244552414257	204.735871260043	1190.214585850563	1124.900888179720	724.689666285097	1431.295614101135	1159.051254886616	651.886210043990	
73	27.254000000000	833.864232065293	997.021783859851	479.685261753141	986.037296383091	1417.551981848113	281.961608390696	1105.376806415458	1352.426450991585	432.106038724592	1038.731517815749	1430.112275229759	610.661533336569	990.354515439855	1481.672194271223	433.894656002808	1062.561076109400	927.999523337841	586.482798888116	1038.196002635974	943.411061725567	312.182180127740	1052.510217909643	712.715859565681	560.114957644460	941.941371666055	623.451068319985	619.433699797277	999.138237822191	554.565758874154	539.776441055151	973.849038261394	468.183502236135	541.731830297892	1116.370250960995	763.705492411663	350.239242710016	1066.756688331912	633.141288905362	276.291164987818	1171.334525744353	578.024980293896	339.512298369805	1193.178557907282	507.581161142324	340.037956922524	1173.173587608476	432.730172087585	330.824364340704	1097.663393234912	306.659690107700	284.096277873078	1176.013380442062	203.548726607190	342.966919130254	928.346983830996	387.937094016496	548.111209844451	837.940541468338	300.315377724954	609.189474268990	858.232538495423	199.793834999799	544.895923453116	699.418275685000	48.912742384090	510.963833889467	870.766170438507	96.649660939906	553.192424905350	779.159193916659	38.965015385239	588.289774690155	987.669183261702	38.826111922942	587.255594679597	1077.617520611584	38.392707623840	388.650529927190	1147.897107068440	36.715200173716	304.878354664948	1228.397469260693	102.172828818651	325.609628528453	1356.921006151935	56.439715311794	292.687388952378	866.889164011042	1079.095534088316	191.941087885570	820.096182384891	825.212012087324	202.095446776078	1189.030028003839	1123.046976939842	722.963440493201	1429.748882248259	1159.181630767812	650.143243526124	
74	27.266000000000	835.347595423018	996.308111133015	477.815315316972	986.362793357109	1416.718994922809	279.586847922146	1106.020622567816	1352.252721017686	429.773256318956	1039.195815764443	1429.829433649707	608.443141916351	990.864435037811	1481.177445749371	431.373726488520	1064.337282386156	927.310171087733	584.626594869642	1039.745447412985	943.136954648288	310.429886413237	1054.282129933217	711.965859544166	558.505663551099	943.518046123703	622.806526945642	617.751286173425	1000.862793603690	553.531491039762	538.436520680151	975.017803043075	466.257542882965	540.494189753774	1118.237908714574	762.717516807933	348.476286256343	1067.085998180984	632.488247986137	275.568825519265	1171.466844692384	576.846458158794	338.745077343728	1192.099220185413	505.819644556925	339.952640457360	1171.695401435370	430.761448140544	330.820383557595	1095.105461082443	305.550950125455	283.586877337328	1171.002679311700	201.487232973181	343.538139552656	927.684377818828	386.830152119006	547.050332729870	835.683713757489	301.162610649782	608.626788174070	853.909859071532	200.091174266310	544.709950892251	692.574493278154	51.404070733900	511.421501744027	864.433241882225	97.068067349541	553.473958890953	772.281990512468	40.078745466870	588.453058575951	980.631288402151	38.472777497995	587.338421890646	1069.146391591099	38.321773586498	388.902693564479	1139.515071236859	36.111052448762	305.129378822212	1221.347029980206	99.819057822201	326.732500865134	1349.392810918724	51.644968795809	293.535704732208	869.447492340562	1077.242114254590	189.723732996799	823.983038626744	823.131327396066	199.315208290706	1187.037074455705	1120.851901247166	721.310198173674	1427.658526552409	1157.787139406323	648.601249425168	
75	27.278000000000	836.749448913637	996.012581038656	475.927037938526	986.844490441913	1416.280849287420	277.189256405336	1106.788783917659	1352.363358410858	427.400719192316	1039.884454032468	1429.879953580676	606.188072153068	991.582200750257	1481.069127803719	428.838701346452	1066.007666640634	926.984520585974	582.620818227324	1041.115391168358	943.269944354420	308.513790761392	1056.093480587493	711.629113409909	556.801492577778	945.334184727967	622.465599909112	616.029143577106	1002.984955142415	552.836806206604	537.119146112222	976.770030701510	464.518532690536	539.515310329549	1119.878104544004	762.231345832520	346.605996351562	1067.515909602967	632.389332504309	274.503499722277	1171.477964050410	576.118478652205	337.775332495792	1191.042626985443	504.607263582978	339.555856874276	1170.265951411254	429.335661780188	330.558774374339	1092.756304399777	304.949863515531	282.769846078543	1166.193296476449	200.007306404646	343.826355559428	927.436254473997	386.020341754667	546.181880735270	833.703250345048	302.451947774773	608.117727081443	849.906644284161	200.800511010515	544.688183157784	685.919154008626	54.629610157426	511.932862348026	858.415058872976	97.630093212571	553.902297590229	765.527339780136	41.543479607158	588.630583128116	973.636971791499	38.132813540791	587.412352309427	1061.171894892872	38.372853894664	388.830040934449	1131.698319968519	35.844784299697	305.137613198792	1214.478503260605	98.273597772235	327.514302872247	1342.213316202598	48.257168422883	294.223883904265	872.626701392292	1075.590943707486	187.385148959680	829.214330452180	821.123709592145	196.429387594686	1184.217207267490	1118.429275462991	719.697571092544	1425.027451152893	1154.834985510404	647.248751646367	
76	27.290000000000	838.077167004978	996.166738180432	474.003499843384	987.465199385378	1416.295938281509	274.809350821796	1107.673147798399	1352.787571322837	425.007140765337	1040.805467130974	1430.294057173690	603.909981637337	992.483280986548	1481.370857211764	426.331965196949	1067.549123537329	927.059698036502	580.440848505969	1042.313781329814	943.819280877400	306.408651012687	1057.921953236302	711.736213879535	555.000076322737	947.404382757724	622.448904560901	614.296428559886	1005.536017918297	552.513195878548	535.854822965488	979.163144400587	463.000162668010	538.883556563392	1121.249539757635	762.220407647626	344.600657180520	1067.889562107790	632.739275292961	273.152904488273	1171.242053138191	575.733775629745	336.570612985873	1189.857247093852	503.832454961738	338.844659008798	1168.709417260946	428.365045816544	330.055467983537	1090.375466302128	304.760767981491	281.784580883991	1161.464073651260	199.033371947406	343.880163915560	927.667366173767	385.533012657016	545.573873725130	832.045975743899	304.221100532136	607.689811600177	846.283192362054	201.952160904618	544.864636767502	679.505000112538	58.653648705223	512.489813132980	852.757387735750	98.335198582848	554.496640456720	758.918073464451	43.401955573432	588.824678485315	966.683301385855	37.826095103122	587.469638566725	1053.646953870270	38.497991494406	388.560252968249	1124.352763048849	35.825296032094	304.988091025199	1207.741308654184	97.415160003491	327.982725938362	1335.303095751273	46.095798088022	294.710848822166	876.383137260444	1074.242419980787	184.944399222686	835.770209806812	819.300054666570	193.467733842819	1180.562692723124	1115.901458252495	718.091149226423	1421.843774407415	1150.306029562136	646.075675268680	
